<?xml version="1.0" encoding="utf-8"?>
<!-- Generator: Adobe Illustrator 16.0.0, SVG Export Plug-In . SVG Version: 6.00 Build 0)  -->
<!DOCTYPE svg PUBLIC "-//W3C//DTD SVG 1.1//EN" "http://www.w3.org/Graphics/SVG/1.1/DTD/svg11.dtd">
<svg version="1.1" id="Layer_1" xmlns="http://www.w3.org/2000/svg" xmlns:xlink="http://www.w3.org/1999/xlink" x="0px" y="0px"
	 width="612px" height="792px" viewBox="0 0 612 792" enable-background="new 0 0 612 792" xml:space="preserve">
<path fill="#DC6053" d="M306.003,758.849c0,0-92.626,49.646-164.996-8.492C82.661,703.479,41.525,556.64,41.525,487.703
	c0-69.602,0-168.028,77.644-217.769c70.924-45.436,186.833,19.411,186.833,19.411V758.849z"/>
<path fill="#F16E5A" d="M306.003,758.849c0,0,92.621,49.646,164.99-8.492c58.349-46.878,99.482-193.717,99.482-262.653
	c0-69.602,0-168.028-77.644-217.769c-70.926-45.436-186.829,19.411-186.829,19.411V758.849z"/>
<path fill="#8CBF66" d="M325.708,238.498c10.097-72.564,30.342-120.987,64.296-157.714C424.776,43.178,539.237,11.9,537.605,13.46
	c-14.149,13.547-12.688,24.262-12.131,32.148c0.526,7.508,5.862,20.833,7.687,29.11c1.476,6.682,1.055,30.082,0,40.035
	c-1.014,9.584-61.442,121.263-184.707,139.005c-8.513,1.227,57.399-46.572,71.578-67.33c12.557-18.385,40.337-77.741,40.337-77.741
	s-48.332,58.965-66.724,76.43C377.98,199.992,322.73,259.893,325.708,238.498z"/>
<path fill="#8CBF66" d="M314.153,257.757c0,0,25.107-157.015-99.322-160.197c-10.172-0.26-3.644,12.939-2.554,12.986
	c120.608,5.158,83.162,147.211,83.162,147.211H314.153z"/>
</svg>
