
<svg viewBox="0 0 612 792">

<path fill="#F6E9E5" d="M409.073,412.386c24.014-31.55,125.922-103.743,93.811-238.154
c-32.102-134.401-90.229-197.976-130.09-59.724c-39.879,138.228,8.973,273.126,8.973,273.126L409.073,412.386z"/>

<path fill="#F19EA0" d="M433.108,90.314c0,0,0.049,27.907-7.443,63.235c-7.48,35.317,28.59,117.824-7.541,205.693
C418.124,359.243,552.831,262.48,433.108,90.314z"/>

<path fill="#F6E9E5" d="M214.639,412.386c-24.003-31.55-125.917-103.743-93.815-238.154
c32.101-134.401,90.23-197.976,130.104-59.724c39.868,138.228-8.979,273.126-8.979,273.126L214.639,412.386z"/>

<path fill="#F19EA0" d="M190.605,90.314c0,0-0.045,27.907,7.443,63.235c7.48,35.317-28.594,117.824,7.541,205.693
C205.589,359.243,70.886,262.48,190.605,90.314z"/>

<path fill="#D3C5C1" d="M171.554,604.77c0,66.664,60.031,120.7,134.083,120.7V484.064
C231.585,484.064,171.554,538.112,171.554,604.77z"/>

<path fill="#F6E9E5" d="M439.72,604.77c0-66.656-60.041-120.704-134.082-120.704V725.47
C379.679,725.47,439.72,671.434,439.72,604.77z"/>

<path fill="#D3C5C1" d="M305.091,426.226c-85.774,0-155.323,54.043-155.323,120.707c0,66.653,69.549,133.144,155.323,133.144
c85.783,0,155.334-66.489,155.334-133.144C460.425,480.269,390.874,426.226,305.091,426.226z"/>

<rect x="222.922" y="695.956" fill="#D3C5C1" width="60.584" height="52.817"/>

<path fill="#D3C5C1" d="M300.599,768.964c0-26.168-21.211-47.381-47.381-47.381c-26.163,0-47.384,21.213-47.384,47.381H300.599
z"/>

<rect x="327.771" y="695.956" fill="#F6E9E5" width="60.586" height="52.817"/>

<path fill="#F6E9E5" d="M405.44,768.964c0-26.168-21.207-47.381-47.382-47.381c-26.161,0-47.383,21.213-47.383,47.381H405.44z"
/>

<path fill="#4A1C12" d="M234.205,323.009c0.479-0.195,0.948-0.365,1.424-0.562
C235.14,322.629,234.684,322.823,234.205,323.009z"/>

<path fill="#4A1C12" d="M375.659,322.446c0.438,0.197,0.908,0.357,1.354,0.546
C376.556,322.813,376.118,322.624,375.659,322.446z"/>

<path fill="#F6E9E5" d="M515.325,569.365c-21.744-10.871-34.164-91.634-34.164-91.634
c-12.43-83.88-51.264-135.135-97.853-152.224c-2.147-0.788-4.217-1.659-6.295-2.516c-0.446-0.189-0.918-0.349-1.354-0.546
c-20.017-7.59-44.101-12.013-70.021-12.013v142.195v63.93c0.043,0,0.084,0,0.127,0c-0.043,0-0.084,0-0.127,0v136.676
c0.161,0,0.316,0.011,0.486,0.011c51.422,0,83.404-9.957,104.842-26.402c9.777-7.491,19.129-15.606,29.236-22.072
c-0.012-0.098-0.045-0.18-0.058-0.272C477.202,580.877,515.325,569.365,515.325,569.365z"/>

<path fill="#D3C5C1" d="M235.628,322.446c-0.476,0.197-0.945,0.367-1.424,0.562c-2.049,0.86-4.102,1.72-6.245,2.5
c-46.585,17.087-85.417,68.343-97.844,152.224c0,0-12.422,80.763-34.166,91.634c0,0,38.415,11.593,75.605,35.403
c0,0,19.948,14.581,29.725,22.072c21.356,16.384,57.217,26.316,104.358,26.393V516.559c-0.124,0-0.229,0.013-0.35,0.013
c0.12,0,0.229-0.013,0.35-0.013v-63.93V310.434C279.718,310.434,255.658,314.856,235.628,322.446z"/>

<ellipse id="eye1" fill="#F19EA0" cx="205.549" cy="462.961" rx="24.321" ry="21.104"/>
<ellipse id="eye2" fill="#F19EA0" cx="405.55" cy="462.961" rx="24.321" ry="21.104"/>

<path fill="#F19EA0" d="M341.196,527.683l-35.975,4.112l-35.984-4.112c-3.363-0.427-6.492,2.057-6.889,5.47
c-0.384,3.412,2.063,6.497,5.475,6.88l30.762,3.525v45.206c-2.047,2.417-6.771,6.974-11.561,4.396
c-3.041-1.635-6.804-0.493-8.428,2.532c-1.624,3.028-0.486,6.803,2.535,8.421c3.049,1.642,6.018,2.318,8.834,2.318
c6.02,0,11.31-3.105,15.191-6.633c3.805,3.538,9.045,6.645,15.12,6.645c2.827,0,5.823-0.668,8.94-2.285
c3.053-1.576,4.244-5.339,2.658-8.379c-1.575-3.053-5.326-4.243-8.378-2.657c-5.141,2.635-9.679-1.849-11.645-4.276v-45.288
l30.763-3.525c3.401-0.384,5.854-3.469,5.471-6.88C347.692,529.738,344.607,527.239,341.196,527.683z"/>

</svg>
