<?xml version="1.0" encoding="utf-8"?>
<!-- Generator: Adobe Illustrator 16.0.0, SVG Export Plug-In . SVG Version: 6.00 Build 0)  -->
<!DOCTYPE svg PUBLIC "-//W3C//DTD SVG 1.1//EN" "http://www.w3.org/Graphics/SVG/1.1/DTD/svg11.dtd">
<svg version="1.1" id="Layer_1" xmlns="http://www.w3.org/2000/svg" xmlns:xlink="http://www.w3.org/1999/xlink" x="0px" y="0px"
	 width="612px" height="792px" viewBox="0 0 612 792" enable-background="new 0 0 612 792" xml:space="preserve">
<g>
	<g>
		<g>
			<g>
				<g>
					<rect x="209.394" y="625.185" fill="#D3C5C1" width="65.906" height="90.867"/>
				</g>
			</g>
			<g>
				<g>
					<rect x="335.404" y="625.185" fill="#F6E9E5" width="65.911" height="90.867"/>
				</g>
			</g>
			<g>
				<g>
					<g>
						<path fill="#3C3C3B" d="M241.65,727.832c2.785,0,5.048,2.264,5.048,5.054v12.621h53.007c0-31.683-25.681-57.356-57.356-57.356
							c-31.676,0-57.361,25.674-57.361,57.356h51.608v-12.621C236.596,730.096,238.86,727.832,241.65,727.832z"/>
					</g>
				</g>
			</g>
			<g>
				<g>
					<g>
						<path fill="#3C3C3B" d="M367.655,727.832c2.79,0,5.054,2.264,5.054,5.054v12.621h53.006c0-31.683-25.684-57.356-57.361-57.356
							c-31.675,0-57.367,25.674-57.367,57.356h51.608v-12.621C362.595,730.096,364.858,727.832,367.655,727.832z"/>
					</g>
				</g>
			</g>
		</g>
		<g>
			<g opacity="0.39">
				<g>
					<path fill="#C6CCD6" d="M305.357,569.73c95.502,0,176.026-48.426,201.746-114.729
						c-25.72-88.67-106.244-137.132-201.746-137.132c-95.513,0-176.048,48.462-201.763,137.132
						C129.31,521.305,209.845,569.73,305.357,569.73z"/>
				</g>
			</g>
			<g>
				<g>
					<path fill="#D3C5C1" d="M305.357,569.73c95.502,0,176.026-48.426,201.746-114.729
						c-25.72-88.67-106.244-137.132-201.746-137.132c-95.513,0-176.048,48.462-201.763,137.132
						C129.31,521.305,209.845,569.73,305.357,569.73z"/>
				</g>
			</g>
			<g>
				<g>
					<path fill="#D3C5C1" d="M103.594,455.002c-5.582,19.238-8.698,40.291-8.698,63.245c0,88.409,94.222,160.062,210.461,160.062
						V569.73C209.845,569.73,129.31,521.305,103.594,455.002z"/>
				</g>
			</g>
		</g>
		<g>
			<g>
				<g>
					<path fill="#F6E9E5" d="M410.576,579.81c4.291-19.032,27.872-23.647,35.641-40.303c7.722-16.598,53.416-36.701,69.218-15.833
						c0.089-1.812,0.373-3.59,0.373-5.427c0-22.954-3.122-44.007-8.704-63.245c-25.72,66.303-106.244,114.729-201.746,114.729
						v108.578c57.143,0,108.894-17.383,146.814-45.498c-10.807-1.76-21.728-6.358-31.25-16.063
						C420.922,616.747,406.281,598.834,410.576,579.81z"/>
				</g>
			</g>
			<g>
				<g>
					<path fill="#3C3C3B" d="M515.435,523.674c-15.802-20.868-61.496-0.765-69.218,15.833c-7.769,16.655-31.35,21.271-35.641,40.303
						c-4.295,19.024,10.346,36.938,10.346,36.938c9.522,9.705,20.443,14.304,31.25,16.063
						C489.79,604.92,513.545,566.431,515.435,523.674z"/>
				</g>
			</g>
		</g>
		<g>
			<g>
				<path fill="#3C3C3B" d="M193.146,583.316c0,0-13.61-14.511-4.911-29.027c8.698-14.516,32.048,5.049,32.048,5.049
					s22.35,14.575,28.394,16.407c23.742,7.216,20.199,30.929-8.195,42.281C220.119,626.168,193.146,583.316,193.146,583.316z"/>
			</g>
		</g>
	</g>
	<g>
		<g>
			<g>
				<g>
					<path fill="#3C3C3B" d="M-0.772,91.94c0,0,18.677,128.377,90.999,128.377c72.311,0,96.586,0,96.586,0
						S153.602,91.94,81.286,91.94C8.97,91.94-0.772,91.94-0.772,91.94z"/>
				</g>
			</g>
			<g>
				<g>
					<path fill="#D76C79" d="M32.469,114.684c0,0,12.057,82.887,58.742,82.887c46.69,0,62.368,0,62.368,0
						s-21.448-82.887-68.139-82.887C38.755,114.684,32.469,114.684,32.469,114.684z"/>
				</g>
			</g>
		</g>
		<g>
			<g>
				<g>
					<path fill="#3C3C3B" d="M611.476,91.94c0,0-18.676,128.377-90.998,128.377c-72.336,0-96.604,0-96.604,0
						S457.095,91.94,529.412,91.94C601.717,91.94,611.476,91.94,611.476,91.94z"/>
				</g>
			</g>
			<g>
				<g>
					<path fill="#D76C79" d="M578.234,114.684c0,0-12.075,82.887-58.747,82.887c-46.685,0-62.362,0-62.362,0
						s21.443-82.887,68.127-82.887C571.943,114.684,578.234,114.684,578.234,114.684z"/>
				</g>
			</g>
		</g>
	</g>
	<g>
		<g>
			<g>
				<g>
					<path fill="#F6E9E5" d="M415.223,100.301c-6.791,4.233-77.999,51.33-74.787,163.638
						c3.347,117.26,152.347,61.255,153.971,60.639c0.812,7.11,1.458,14.421,1.7,22.29c0.078,2.779,0.249,5.452,0.249,8.354
						c0,95.733-80.446,173.341-192.147,173.341V59.719C347.118,59.719,386.022,75.602,415.223,100.301z"/>
				</g>
			</g>
			<g>
				<g>
					<path fill="#3C3C3B" d="M340.436,263.938c-3.212-112.308,67.996-159.404,74.787-163.638
						c27.682,23.425,46.653,54.763,51.785,88.258c0.12,0.818,0.344,1.611,0.451,2.429c0,0,7.11,31.107,10.013,46.762
						c6.02,32.446,13.552,57.183,16.935,86.827C492.782,325.193,343.782,381.198,340.436,263.938z"/>
				</g>
			</g>
		</g>
		<g>
			<g>
				<g>
					<path fill="#D3C5C1" d="M194.343,100.301c6.791,4.233,77.999,51.33,74.788,163.638
						c-3.348,117.26-152.348,61.255-153.972,60.639c-0.806,7.11-1.451,14.421-1.693,22.29c-0.084,2.779-0.255,5.452-0.255,8.354
						c0,95.733,80.446,173.341,192.146,173.341V59.719C262.448,59.719,223.543,75.602,194.343,100.301z"/>
				</g>
			</g>
			<g>
				<g>
					<path fill="#3C3C3B" d="M269.131,263.938c3.211-112.308-67.997-159.404-74.788-163.638
						c-27.682,23.425-46.654,54.763-51.785,88.258c-0.119,0.818-0.338,1.611-0.45,2.429c0,0-7.104,31.107-10.014,46.762
						c-6.02,32.446-13.556,57.183-16.934,86.827C116.784,325.193,265.783,381.198,269.131,263.938z"/>
				</g>
			</g>
		</g>
		<g>
			<g>
				<path fill="#F29E9F" d="M463.547,436.693c0,57.165-70.829,103.5-158.189,103.5c-87.384,0-158.202-46.335-158.202-103.5
					c0-57.167,70.818-103.501,158.202-103.501C392.718,333.192,463.547,379.527,463.547,436.693z"/>
			</g>
		</g>
		<g>
			<g>
				<g>
					<path fill="#D76C79" d="M233.675,420.701c0,12.555-10.168,22.723-22.729,22.723c-12.538,0-22.71-10.168-22.71-22.723
						c0-12.55,10.173-22.717,22.71-22.717C223.507,397.984,233.675,408.151,233.675,420.701z"/>
				</g>
			</g>
			<g>
				<g>
					<path fill="#D76C79" d="M423.002,420.701c0,12.555-10.174,22.723-22.724,22.723c-12.549,0-22.717-10.168-22.717-22.723
						c0-12.55,10.168-22.717,22.717-22.717C412.828,397.984,423.002,408.151,423.002,420.701z"/>
				</g>
			</g>
		</g>
		<g>
			<g>
				<g>
					<path fill="#F5F0F2" d="M438.774,232.204c0,19.825-16.062,35.906-35.899,35.906c-19.826,0-35.896-16.081-35.896-35.906
						c0-19.832,16.069-35.907,35.896-35.907C422.712,196.297,438.774,212.372,438.774,232.204z"/>
				</g>
			</g>
			<g>
				<g>
					<g>
						<path fill="#3C3C3B" d="M428.127,232.204c0,13.941-11.306,25.24-25.259,25.24c-13.931,0-25.234-11.299-25.234-25.24
							c0-13.949,11.304-25.242,25.234-25.242C416.821,206.962,428.127,218.255,428.127,232.204z"/>
					</g>
				</g>
			</g>
			<g>
				<g>
					<path fill="#D3C5C1" d="M254.917,232.204c0,19.825-16.063,35.906-35.901,35.906c-19.826,0-35.895-16.081-35.895-35.906
						c0-19.832,16.069-35.907,35.895-35.907C238.854,196.297,254.917,212.372,254.917,232.204z"/>
				</g>
			</g>
			<g>
				<g>
					<g>
						<path fill="#3C3C3B" d="M244.257,232.204c0,13.941-11.305,25.24-25.241,25.24c-13.948,0-25.241-11.299-25.241-25.24
							c0-13.949,11.293-25.242,25.241-25.242C232.953,206.962,244.257,218.255,244.257,232.204z"/>
					</g>
				</g>
			</g>
			<g>
				<g>
					<path fill="#FFFFFF" d="M237.692,224.631c0,5.108-4.148,9.268-9.267,9.268c-5.12,0-9.268-4.16-9.268-9.268
						c0-5.112,4.148-9.267,9.268-9.267C233.544,215.364,237.692,219.519,237.692,224.631z"/>
				</g>
			</g>
			<g>
				<g>
					<path fill="#FFFFFF" d="M419.844,224.631c0,5.108-4.148,9.268-9.268,9.268c-5.117,0-9.261-4.16-9.261-9.268
						c0-5.112,4.144-9.267,9.261-9.267C415.695,215.364,419.844,219.519,419.844,224.631z"/>
				</g>
			</g>
		</g>
	</g>
</g>
</svg>
